<svg width="20" height="66" viewBox="0 0 20 66" fill="none" xmlns="http://www.w3.org/2000/svg">
<line x1="1" y1="1.5" x2="10" y2="1.5" stroke="#D7D7D3"/>
<line x1="1" y1="63.5" x2="10" y2="63.5" stroke="#D7D7D3"/>
<line x1="1" y1="32.5" x2="10" y2="32.5" stroke="#D7D7D3"/>
<line x1="9.5" y1="2" x2="9.5" y2="7" stroke="#D7D7D3"/>
<line x1="9.5" y1="64" x2="9.5" y2="58" stroke="#D7D7D3"/>
<line x1="9.5" y1="27" x2="9.5" y2="38" stroke="#D7D7D3"/>
<path d="M7.0788 51.4299C7.0788 52.6217 8.04493 53.5878 9.23671 53.5878C10.4285 53.5878 11.3946 52.6217 11.3946 51.4299L11.3946 50.171C11.3946 49.8731 11.6361 49.6315 11.9341 49.6315V49.6315C12.232 49.6315 12.4736 49.8731 12.4736 50.171L12.4736 51.4299C12.4736 53.2176 11.0244 54.6667 9.23671 54.6667C7.44904 54.6667 5.99984 53.2176 5.99984 51.4299L5.99984 50.171C5.99984 49.8731 6.24138 49.6315 6.53932 49.6315V49.6315C6.83727 49.6315 7.0788 49.8731 7.0788 50.171L7.0788 51.4299Z" fill="#767676"/>
<path d="M11.3948 44.2369C11.3948 43.0451 10.4286 42.079 9.23686 42.079C8.04508 42.079 7.07895 43.0451 7.07895 44.2369V45.4957C7.07895 45.7937 6.83742 46.0352 6.53948 46.0352V46.0352C6.24153 46.0352 6 45.7937 6 45.4957L6 44.2369C6 42.4492 7.44919 41 9.23686 41C11.0245 41 12.4737 42.4492 12.4737 44.2369V45.4957C12.4737 45.7937 12.2322 46.0352 11.9343 46.0352V46.0352C11.6363 46.0352 11.3948 45.7937 11.3948 45.4957V44.2369Z" fill="#767676"/>
<rect x="1.54486" y="44.7345" width="1.03878" height="3.17304" rx="0.519388" transform="rotate(-45 1.54486 44.7345)" fill="#FF393C"/>
<rect x="1" y="48.2606" width="1.03878" height="3.17304" rx="0.519388" transform="rotate(-90 1 48.2606)" fill="#FF393C"/>
<rect x="2.26154" y="51.4591" width="1.03878" height="3.17304" rx="0.519388" transform="rotate(-135 2.26154 51.4591)" fill="#FF393C"/>
<rect x="14" y="49.2433" width="1.03878" height="3.17304" rx="0.519388" transform="rotate(-45 14 49.2433)" fill="#FF393C"/>
<rect x="14.2342" y="48.2523" width="1.02477" height="3.27928" rx="0.512387" transform="rotate(-90 14.2342 48.2523)" fill="#FF393C"/>
<rect x="14.7345" y="46.9781" width="1.03878" height="3.17304" rx="0.519388" transform="rotate(-135 14.7345 46.9781)" fill="#FF393C"/>
<path d="M7.0788 20.4299C7.0788 21.6217 8.04493 22.5878 9.23671 22.5878C10.4285 22.5878 11.3946 21.6217 11.3946 20.4299L11.3946 19.171C11.3946 18.8731 11.6361 18.6315 11.9341 18.6315V18.6315C12.232 18.6315 12.4736 18.8731 12.4736 19.171L12.4736 20.4299C12.4736 22.2176 11.0244 23.6667 9.23671 23.6667C7.44904 23.6667 5.99984 22.2176 5.99984 20.4299L5.99984 19.171C5.99984 18.8731 6.24138 18.6315 6.53932 18.6315V18.6315C6.83727 18.6315 7.0788 18.8731 7.0788 19.171L7.0788 20.4299Z" fill="#767676"/>
<path d="M11.3948 13.2369C11.3948 12.0451 10.4286 11.079 9.23686 11.079C8.04508 11.079 7.07895 12.0451 7.07895 13.2369V14.4957C7.07895 14.7937 6.83742 15.0352 6.53948 15.0352V15.0352C6.24153 15.0352 6 14.7937 6 14.4957L6 13.2369C6 11.4492 7.44919 10 9.23686 10C11.0245 10 12.4737 11.4492 12.4737 13.2369V14.4957C12.4737 14.7937 12.2322 15.0352 11.9343 15.0352V15.0352C11.6363 15.0352 11.3948 14.7937 11.3948 14.4957V13.2369Z" fill="#767676"/>
<rect x="1.54486" y="13.7345" width="1.03878" height="3.17304" rx="0.519388" transform="rotate(-45 1.54486 13.7345)" fill="#FF393C"/>
<rect x="1" y="17.2606" width="1.03878" height="3.17304" rx="0.519388" transform="rotate(-90 1 17.2606)" fill="#FF393C"/>
<rect x="2.26154" y="20.4591" width="1.03878" height="3.17304" rx="0.519388" transform="rotate(-135 2.26154 20.4591)" fill="#FF393C"/>
<rect x="14" y="18.2433" width="1.03878" height="3.17304" rx="0.519388" transform="rotate(-45 14 18.2433)" fill="#FF393C"/>
<rect x="14.2342" y="17.2523" width="1.02477" height="3.27928" rx="0.512387" transform="rotate(-90 14.2342 17.2523)" fill="#FF393C"/>
<rect x="14.7345" y="15.9781" width="1.03878" height="3.17304" rx="0.519388" transform="rotate(-135 14.7345 15.9781)" fill="#FF393C"/>
</svg>
