<?xml version="1.0" encoding="UTF-8" standalone="no"?>
<!-- Created with Inkscape (http://www.inkscape.org/) -->
<svg
   xmlns:dc="http://purl.org/dc/elements/1.1/"
   xmlns:cc="http://creativecommons.org/ns#"
   xmlns:rdf="http://www.w3.org/1999/02/22-rdf-syntax-ns#"
   xmlns:svg="http://www.w3.org/2000/svg"
   xmlns="http://www.w3.org/2000/svg"
   xmlns:sodipodi="http://sodipodi.sourceforge.net/DTD/sodipodi-0.dtd"
   xmlns:inkscape="http://www.inkscape.org/namespaces/inkscape"
   width="378.08456"
   height="321.31619"
   id="svg1901"
   sodipodi:version="0.32"
   inkscape:version="0.46+pre4"
   sodipodi:docname="thought_bubble.svg"
   sodipodi:docbase="/home/tsoots/ohj/translations/po"
   version="1.0"
   inkscape:output_extension="org.inkscape.output.svg.inkscape">
  <defs
     id="defs1903">
    <inkscape:perspective
       sodipodi:type="inkscape:persp3d"
       inkscape:vp_x="0 : 526.18109 : 1"
       inkscape:vp_y="0 : 1000 : 0"
       inkscape:vp_z="744.09448 : 526.18109 : 1"
       inkscape:persp3d-origin="372.04724 : 350.78739 : 1"
       id="perspective7" />
    <inkscape:perspective
       id="perspective2387"
       inkscape:persp3d-origin="372.04724 : 350.78739 : 1"
       inkscape:vp_z="744.09448 : 526.18109 : 1"
       inkscape:vp_y="0 : 1000 : 0"
       inkscape:vp_x="0 : 526.18109 : 1"
       sodipodi:type="inkscape:persp3d" />
  </defs>
  <sodipodi:namedview
     id="base"
     pagecolor="#ffffff"
     bordercolor="#666666"
     borderopacity="1.0"
     inkscape:pageopacity="0.0"
     inkscape:pageshadow="2"
     inkscape:zoom="0.98994949"
     inkscape:cx="208.79972"
     inkscape:cy="187.27805"
     inkscape:document-units="px"
     inkscape:current-layer="layer1"
     gridtolerance="10000"
     inkscape:window-width="877"
     inkscape:window-height="739"
     inkscape:window-x="101"
     inkscape:window-y="106"
     showgrid="false" />
  <metadata
     id="metadata1906">
    <rdf:RDF>
      <cc:Work
         rdf:about="">
        <dc:format>image/svg+xml</dc:format>
        <dc:type
           rdf:resource="http://purl.org/dc/dcmitype/StillImage" />
      </cc:Work>
    </rdf:RDF>
  </metadata>
  <g
     inkscape:label="Taso 1"
     inkscape:groupmode="layer"
     id="layer1"
     style="opacity:1"
     transform="translate(-381.97191,-279.52095)">
    <path
       style="fill:#ffffff;stroke:#000000;stroke-width:6;stroke-opacity:1"
       d="M 390.10287,595.61916 C 387.28207,592.61655 387.33775,588.83727 390.24301,586.10792 C 393.24562,583.28712 397.0249,583.3428 399.75425,586.24806 C 402.57505,589.25067 402.51937,593.02995 399.61411,595.7593 C 396.6115,598.5801 392.83222,598.52442 390.10287,595.61916 z M 410.69113,583.36822 C 403.15678,579.28013 403.27898,567.38936 410.89583,563.45054 C 416.63707,560.48163 423.60911,562.48139 426.41163,567.90088 C 431.74584,578.21609 420.88675,588.9003 410.69113,583.36822 z M 439.92856,564.68559 C 430.05847,559.40942 426.12449,547.38451 431.17658,537.93361 C 436.45275,528.06352 448.47766,524.12954 457.92856,529.18163 C 467.79865,534.4578 471.73263,546.48271 466.68054,555.93361 C 461.40437,565.8037 449.37946,569.73768 439.92856,564.68559 z M 589.04154,546.38897 C 576.16026,543.59441 567.93424,540.181 558.08351,533.54283 L 552.73847,529.94093 L 543.58351,534.4593 C 538.54829,536.94439 531.27856,539.63493 527.42856,540.43827 C 491.40571,547.95476 456.12998,526.09748 446.93093,490.56094 C 445.67889,485.72424 444.65891,483.54799 443.75725,483.78949 C 443.02647,483.98523 438.82856,484.37838 434.42856,484.66316 C 419.85849,485.60617 407.98591,480.91654 397.73466,470.16918 C 391.62966,463.76872 388.97796,459.22903 386.53887,451.00211 C 383.25728,439.93345 385.27187,424.3728 391.25517,414.57354 C 395.04296,408.37003 403.55365,400.43753 409.76508,397.32115 L 415.5204,394.43361 L 416.76982,387.93361 C 421.49745,363.33863 443.78272,344.93361 468.83533,344.93361 L 474.64365,344.93361 L 475.27904,338.85453 C 477.76868,315.03488 495.76207,293.2493 519.92856,284.79491 C 525.45108,282.86291 528.45872,282.52095 539.92856,282.52095 C 551.3984,282.52095 554.40604,282.86291 559.92856,284.79491 C 578.18677,291.18235 592.72133,304.60506 600.05708,321.85369 C 601.629,325.54975 603.41935,328.34398 604.14202,328.22909 C 604.84962,328.11661 608.12856,327.04467 611.42856,325.84701 C 619.59746,322.88228 634.09345,322.1821 643.1624,324.31421 C 660.68227,328.43313 676.28486,340.70504 683.64894,356.15812 C 685.955,360.99723 686.7693,361.89214 688.42856,361.41088 C 692.89306,360.11597 706.80204,359.78074 712.42856,360.83245 C 722.07831,362.63617 732.19054,368.03338 739.94301,375.51775 C 762.26763,397.07035 762.81496,430.70844 741.20524,453.09222 C 729.75563,464.95195 715.37631,470.5721 698.79444,469.66845 L 690.16032,469.19792 L 688.95993,476.63907 C 682.27373,518.08659 646.83745,548.11086 604.92856,547.83675 C 599.70356,547.80257 592.5544,547.15107 589.04154,546.38897 z"
       id="path2393"
       inkscape:export-filename="C:\Documents and Settings\HP_Omistaja\Työpöytä\f.png"
       inkscape:export-xdpi="241.6386"
       inkscape:export-ydpi="241.6386" />
  </g>
</svg>
