<?xml version="1.0" encoding="UTF-8" standalone="no"?>
<!-- Created with Inkscape (http://www.inkscape.org/) -->

<svg
   xmlns:dc="http://purl.org/dc/elements/1.1/"
   xmlns:cc="http://creativecommons.org/ns#"
   xmlns:rdf="http://www.w3.org/1999/02/22-rdf-syntax-ns#"
   xmlns:svg="http://www.w3.org/2000/svg"
   xmlns="http://www.w3.org/2000/svg"
   xmlns:sodipodi="http://sodipodi.sourceforge.net/DTD/sodipodi-0.dtd"
   xmlns:inkscape="http://www.inkscape.org/namespaces/inkscape"
   width="16"
   height="16"
   id="svg2"
   version="1.1"
   inkscape:version="0.48.1 r9760"
   sodipodi:docname="drop-shadow.svg">
  <defs
     id="defs4">
    <filter
       id="filter3811"
       inkscape:label="Drop shadow"
       width="1.5"
       height="1.5"
       x="-.25"
       y="-.25">
      <feGaussianBlur
         id="feGaussianBlur3813"
         in="SourceAlpha"
         stdDeviation="1"
         result="blur" />
      <feColorMatrix
         id="feColorMatrix3815"
         result="bluralpha"
         type="matrix"
         values="1 0 0 0 0 0 1 0 0 0 0 0 1 0 0 0 0 0 0.5 0 " />
      <feOffset
         id="feOffset3817"
         in="bluralpha"
         dx="2"
         dy="2"
         result="offsetBlur" />
      <feMerge
         id="feMerge3819">
        <feMergeNode
           id="feMergeNode3821"
           in="offsetBlur" />
        <feMergeNode
           id="feMergeNode3823"
           in="SourceGraphic" />
      </feMerge>
    </filter>
  </defs>
  <sodipodi:namedview
     id="base"
     pagecolor="#ffffff"
     bordercolor="#666666"
     borderopacity="1.0"
     inkscape:pageopacity="0.0"
     inkscape:pageshadow="2"
     inkscape:zoom="25.279067"
     inkscape:cx="8"
     inkscape:cy="6.6207024"
     inkscape:document-units="px"
     inkscape:current-layer="layer1"
     showgrid="false"
     inkscape:window-width="1189"
     inkscape:window-height="772"
     inkscape:window-x="123"
     inkscape:window-y="38"
     inkscape:window-maximized="0" />
  <metadata
     id="metadata7">
    <rdf:RDF>
      <cc:Work
         rdf:about="">
        <dc:format>image/svg+xml</dc:format>
        <dc:type
           rdf:resource="http://purl.org/dc/dcmitype/StillImage" />
        <dc:title></dc:title>
      </cc:Work>
    </rdf:RDF>
  </metadata>
  <g
     inkscape:label="Layer 1"
     inkscape:groupmode="layer"
     id="layer1"
     transform="translate(0,-1036.3622)">
    <path
       style="fill:#729fcf;stroke:#204a87;stroke-width:0.96867114000000021;stroke-miterlimit:4;stroke-opacity:1;stroke-dasharray:none"
       d="m 8.6792912,1049.4735 c -0.5098863,-0.1106 -0.835506,-0.2457 -1.2254301,-0.5084 l -0.2115762,-0.1426 -0.3623924,0.1789 c -0.1993129,0.098 -0.4870692,0.2048 -0.6394673,0.2366 -1.4259198,0.2975 -2.8222599,-0.5676 -3.1863936,-1.9743 -0.049545,-0.1914 -0.089934,-0.2776 -0.1256273,-0.268 -0.028942,0.01 -0.1950938,0.023 -0.36926,0.034 -0.5767399,0.038 -1.0467016,-0.1483 -1.4524821,-0.5738 -0.24165845,-0.2533 -0.34662175,-0.433 -0.44317217,-0.7586 -0.12989492,-0.4381 -0.0501578,-1.0541 0.18669332,-1.442 0.14993355,-0.2455 0.48681785,-0.5595 0.73268865,-0.6829 l 0.2278129,-0.1143 0.049484,-0.2573 c 0.1871408,-0.9736 1.0692725,-1.7021 2.0609477,-1.7021 l 0.2299099,0 0.02514,-0.2406 c 0.098549,-0.9429 0.8107948,-1.8053 1.7673905,-2.1399 0.2186029,-0.077 0.3376565,-0.09 0.7916756,-0.09 0.454019,0 0.5730736,0.014 0.7916697,0.09 0.7227314,0.2528 1.298061,0.7842 1.5884357,1.4669 0.062227,0.1463 0.1330896,0.2569 0.1617012,0.2524 0.028024,-0.01 0.1578005,-0.047 0.2884248,-0.094 0.3233571,-0.1173 0.897159,-0.145 1.256143,-0.061 0.6935,0.163 1.311109,0.6488 1.602605,1.2605 0.09129,0.1915 0.123512,0.2269 0.189195,0.2079 0.176718,-0.051 0.727288,-0.065 0.950004,-0.022 0.381978,0.072 0.782252,0.2851 1.089127,0.5813 0.883689,0.8531 0.905353,2.1846 0.04997,3.0707 -0.453216,0.4694 -1.022401,0.6919 -1.678774,0.6562 l -0.341771,-0.018 -0.04752,0.2945 c -0.264665,1.6407 -1.667363,2.8291 -3.3262697,2.8182 -0.2068239,0 -0.4898163,-0.027 -0.6288662,-0.057 z"
       id="path2393"
       inkscape:export-filename="C:\Documents and Settings\HP_Omistaja\Työpöytä\f.png"
       inkscape:export-xdpi="241.6386"
       inkscape:export-ydpi="241.6386"
       inkscape:connector-curvature="0"
       sodipodi:nodetypes="cccccsccccccccscccscscccccccccccccc" />
  </g>
</svg>
