<svg width="160" height="120" viewBox="0 0 160 120" fill="none" xmlns="http://www.w3.org/2000/svg">
<path d="M4.01389 61.5633C4.83122 62.7893 16.8127 71.196 17.5139 71.5633C18.2151 71.9306 31.3088 70.3259 31.0139 71.0633C30.719 71.8006 22.0139 74.5633 21.5139 75.0633C21.0139 75.5633 25.0139 78.5633 26.0139 79.0633C27.0139 79.5633 55.5139 79.0633 55.5139 79.0633C59.1139 84.2633 72.6806 90.5633 79.0139 93.0633C79.0139 90.6633 73.3472 81.5633 70.5139 77.5633C81.7139 76.3633 125.514 60.5633 126.514 62.0633C127.514 63.5633 148.514 79.5633 148.514 78.0633C148.514 76.5633 142.514 60.73 142.514 57.0633C142.514 54.2633 156.514 27.5633 156.514 26.0633C156.514 24.5633 125.514 50.2243 124.514 50.5633C123.514 50.9023 98.1806 46.8966 88.5139 46.5633C86.5139 46.1633 86.0624 26.5633 85.5139 26.0633C84.9654 25.5633 71.1805 39.73 67.0139 45.0633C38.6139 45.0633 3.19656 60.3373 4.01389 61.5633Z" fill="#333026"/>
<circle cx="27.0139" cy="62.0633" r="2" fill="#EBEAE9"/>
<circle cx="45.0139" cy="65.0633" r="2" fill="#EBEAE9"/>
<circle cx="61.0139" cy="63.0633" r="2" fill="#EBEAE9"/>
<circle cx="61.0139" cy="76.0633" r="2" fill="#EBEAE9"/>
<circle cx="70.5139" cy="85.5633" r="1.5" fill="#EBEAE9"/>
<circle cx="146.514" cy="37.5633" r="1.5" fill="#EBEAE9"/>
<circle cx="141.514" cy="71.5633" r="1.5" fill="#EBEAE9"/>
<line x1="27.1224" y1="61.5752" x2="45.1223" y2="65.5752" stroke="#EBEAE9"/>
<line x1="44.9555" y1="65.5667" x2="61.9555" y2="63.5667" stroke="#EBEAE9"/>
<line x1="61.9724" y1="63.565" x2="85.9724" y2="61.565" stroke="#EBEAE9"/>
<line x1="85.9534" y1="61.567" x2="126.953" y2="56.567" stroke="#EBEAE9"/>
<line x1="126.67" y1="56.7008" x2="146.67" y2="37.7008" stroke="#EBEAE9"/>
<line x1="127.379" y1="56.7221" x2="141.379" y2="71.7221" stroke="#EBEAE9"/>
<line x1="61.3674" y1="76.7097" x2="70.3674" y2="85.7097" stroke="#EBEAE9"/>
<line x1="61.5139" y1="63.0633" x2="61.5139" y2="76.0633" stroke="#EBEAE9"/>
<circle cx="86.0139" cy="61.0633" r="2" fill="#EBEAE9"/>
<circle cx="127.014" cy="56.0633" r="2" fill="#EBEAE9"/>
</svg>
