<svg width="160" height="120" viewBox="0 0 160 120" fill="none" xmlns="http://www.w3.org/2000/svg">
<path d="M26.134 12.25C25.55 11.8996 26.3053 19.6146 26.134 19.9C25.9627 20.1854 24.424 22.6 22.984 24.4C21.544 26.2 21.484 31.75 21.634 34.3C21.184 34.6 19.834 35.65 18.034 37.45C15.784 39.7 17.584 42.85 19.834 46.9C21.634 50.14 25.984 50.35 27.934 50.05C29.584 49.45 33.424 47.98 35.584 46.9C38.284 45.55 40.084 48.25 40.084 49.6C40.084 50.405 41.434 59.8 42.334 64.45C42.65 68.05 49.084 88.3 49.984 91C50.704 93.16 49.684 98.8 49.084 101.35H45.934C43.684 101.35 41.884 104.95 41.884 107.2C41.884 109 43.384 109.45 44.134 109.45C44.134 109.45 56.734 109.9 56.734 109.45C56.734 109 56.824 104.41 57.184 102.25C57.544 100.09 58.534 96.55 58.984 95.05C61.864 91.45 60.018 73.45 60.334 73C60.65 72.55 61.684 72.7602 61.684 73C61.684 73.2398 64.884 81.55 65.284 82.45C65.684 83.35 64.834 101.35 64.834 101.35C63.484 102.25 60.334 104.95 60.334 107.2C60.334 109 61.834 109.75 62.584 109.9C62.584 109.9 72.484 110.35 73.7 109.9C74.916 109.45 75.634 95.95 75.634 95.95C78.154 93.07 78.784 78.55 78.784 71.65H85.084C84.934 72.85 84.724 76.15 85.084 79.75C85.444 83.35 88.834 88.75 90.484 91V98.2H86.434C83.734 98.2 82.384 100.9 81.934 103.15C81.574 104.95 82.7 106.3 83.734 106.3H91.834C95.794 106.3 96.784 103.6 96.784 102.25C97.084 100.15 98.134 95.5 99.934 93.7C101.734 91.9 102.184 83.95 102.184 80.2C103.984 80.92 106.234 84.7 107.134 86.5V99.55H104.434C102.274 99.55 99.934 101.65 99.934 102.25V106.3C99.934 108.1 101.434 108.55 102.184 108.55C102.184 108.55 113.75 108.907 113.884 108.55C114.018 108.193 115.954 103.15 118.834 95.95C122.434 86.95 121.534 82.45 121.534 81.1C121.534 79.75 118.834 76.6 117.034 75.25C115.594 74.17 115.234 72.1 115.234 70.3C115.234 68.5 116.45 59.8173 117.034 60.4C117.618 60.9827 141.65 83.6326 142.684 83.35C143.718 83.0674 134.134 68.05 134.134 68.05C134.134 68.05 122.884 52.3 114.334 46C107.494 40.96 96.484 38.8 91.834 38.35C91.834 38.35 72.8 38.8 70.684 38.35C68.568 37.9 58.534 33.85 56.734 32.95C55.294 32.23 45.934 23.5 45.934 22.15C45.934 20.8 41.884 10 40.984 10C40.264 10 38.9442 16.4659 38.734 16.75C38.5238 17.0341 31.5515 17.5067 31.084 17.2C30.6165 16.8933 26.718 12.6004 26.134 12.25Z" fill="#333026"/>
<circle cx="25.55" cy="41.9499" r="1.35" fill="#EBEAE9"/>
<circle cx="136.25" cy="75.2499" r="1.35" fill="#EBEAE9"/>
<circle cx="119.15" cy="55.4499" r="1.35" fill="#EBEAE9"/>
<circle cx="109.25" cy="77.0499" r="1.35" fill="#EBEAE9"/>
<circle cx="116.45" cy="85.1499" r="1.35" fill="#EBEAE9"/>
<circle cx="91.25" cy="77.9499" r="1.35" fill="#EBEAE9"/>
<circle cx="97.55" cy="86.9499" r="1.35" fill="#EBEAE9"/>
<circle cx="72.35" cy="86.0499" r="1.35" fill="#EBEAE9"/>
<circle cx="56.15" cy="86.0499" r="1.35" fill="#EBEAE9"/>
<circle cx="48.05" cy="105.85" r="1.35" fill="#EBEAE9"/>
<circle cx="66.95" cy="106.75" r="1.35" fill="#EBEAE9"/>
<circle cx="87.65" cy="102.25" r="1.35" fill="#EBEAE9"/>
<circle cx="105.65" cy="104.95" r="1.35" fill="#EBEAE9"/>
<circle cx="35.45" cy="29.3499" r="2.25" fill="#EBEAE9"/>
<circle cx="58.85" cy="54.5499" r="2.25" fill="#EBEAE9"/>
<circle cx="50.75" cy="41.9499" r="2.25" fill="#EBEAE9"/>
<circle cx="104.75" cy="50.0499" r="2.25" fill="#EBEAE9"/>
<circle cx="71.45" cy="69.8499" r="2.25" fill="#EBEAE9"/>
<circle cx="94.85" cy="65.3499" r="2.25" fill="#EBEAE9"/>
<circle cx="109.25" cy="64.4499" r="2.25" fill="#EBEAE9"/>
<circle cx="129.05" cy="67.1499" r="1.35" fill="#EBEAE9"/>
<circle cx="86.75" cy="52.7499" r="2.25" fill="#EBEAE9"/>
<circle cx="50.75" cy="68.9499" r="2.25" fill="#EBEAE9"/>
<circle cx="93.95" cy="100.45" r="1.35" fill="#EBEAE9"/>
<circle cx="112.85" cy="101.35" r="1.35" fill="#EBEAE9"/>
<circle cx="72.35" cy="100.45" r="1.35" fill="#EBEAE9"/>
<circle cx="54.35" cy="100.45" r="1.35" fill="#EBEAE9"/>
<line x1="25.6433" y1="42.1256" x2="34.6433" y2="30.4256" stroke="#EBEAE9" stroke-width="0.9"/>
<line x1="36.1838" y1="30.3507" x2="50.5838" y2="42.0507" stroke="#EBEAE9" stroke-width="0.9"/>
<line x1="50.67" y1="42.1438" x2="58.77" y2="53.8438" stroke="#EBEAE9" stroke-width="0.9"/>
<line x1="59.6575" y1="54.7266" x2="71.3575" y2="70.0266" stroke="#EBEAE9" stroke-width="0.9"/>
<line x1="105.633" y1="50.3763" x2="109.233" y2="62.9763" stroke="#EBEAE9" stroke-width="0.9"/>
<line x1="59.2701" y1="54.5509" x2="86.2701" y2="52.7509" stroke="#EBEAE9" stroke-width="0.9"/>
<line x1="85.3573" y1="52.752" x2="104.257" y2="50.952" stroke="#EBEAE9" stroke-width="0.9"/>
<line x1="105.367" y1="50.0821" x2="118.867" y2="55.4821" stroke="#EBEAE9" stroke-width="0.9"/>
<line x1="119.957" y1="55.6256" x2="128.957" y2="67.3256" stroke="#EBEAE9" stroke-width="0.9"/>
<line x1="128.936" y1="67.301" x2="136.136" y2="75.401" stroke="#EBEAE9" stroke-width="0.9"/>
<line x1="87.0764" y1="102.267" x2="93.3764" y2="100.467" stroke="#EBEAE9" stroke-width="0.9"/>
<line x1="105.923" y1="104.986" x2="112.223" y2="102.286" stroke="#EBEAE9" stroke-width="0.9"/>
<line x1="95.8256" y1="64.6503" x2="104.826" y2="51.1503" stroke="#EBEAE9" stroke-width="0.9"/>
<line x1="91.2673" y1="78.2763" x2="94.8673" y2="65.6763" stroke="#EBEAE9" stroke-width="0.9"/>
<line x1="109.25" y1="76.5999" x2="109.25" y2="65.7999" stroke="#EBEAE9" stroke-width="0.9"/>
<line x1="93.9673" y1="99.8763" x2="97.5673" y2="87.2763" stroke="#EBEAE9" stroke-width="0.9"/>
<line x1="112.861" y1="101.702" x2="116.461" y2="85.5023" stroke="#EBEAE9" stroke-width="0.9"/>
<line x1="97.6256" y1="86.7495" x2="92.2256" y2="78.6495" stroke="#EBEAE9" stroke-width="0.9"/>
<line x1="116.564" y1="84.9989" x2="109.364" y2="76.8989" stroke="#EBEAE9" stroke-width="0.9"/>
<line x1="58.7971" y1="55.2117" x2="51.5971" y2="68.7117" stroke="#EBEAE9" stroke-width="0.9"/>
<line x1="51.6352" y1="68.3854" x2="56.1352" y2="85.4854" stroke="#EBEAE9" stroke-width="0.9"/>
<line x1="56.1461" y1="86.5594" x2="54.3461" y2="100.059" stroke="#EBEAE9" stroke-width="0.9"/>
<line x1="54.2182" y1="100.318" x2="47.9182" y2="106.618" stroke="#EBEAE9" stroke-width="0.9"/>
<line x1="72.2182" y1="101.218" x2="66.8182" y2="106.618" stroke="#EBEAE9" stroke-width="0.9"/>
<line x1="71.4492" y1="70.2735" x2="72.3492" y2="85.5735" stroke="#EBEAE9" stroke-width="0.9"/>
<line x1="72.35" y1="85.5999" x2="72.35" y2="100.9" stroke="#EBEAE9" stroke-width="0.9"/>
</svg>
